<svg width="512" height="512" viewBox="0 0 512 512" xmlns="http://www.w3.org/2000/svg">
  <defs>
    <linearGradient id="bg" x1="0%" y1="0%" x2="100%" y2="100%">
      <stop offset="0%" style="stop-color:#1f2937;stop-opacity:1" />
      <stop offset="100%" style="stop-color:#374151;stop-opacity:1" />
    </linearGradient>
    <linearGradient id="warp" x1="0%" y1="0%" x2="100%" y2="0%">
      <stop offset="0%" style="stop-color:#3b82f6;stop-opacity:1" />
      <stop offset="50%" style="stop-color:#8b5cf6;stop-opacity:1" />
      <stop offset="100%" style="stop-color:#ec4899;stop-opacity:1" />
    </linearGradient>
  </defs>
  
  <!-- Background -->
  <rect width="512" height="512" rx="90" fill="url(#bg)"/>
  
  <!-- Grid pattern to represent image warping -->
  <g stroke="url(#warp)" stroke-width="3" fill="none" opacity="0.6">
    <!-- Horizontal lines with warping effect -->
    <path d="M80 150 Q180 140, 280 150 T480 150"/>
    <path d="M80 200 Q180 190, 280 200 T480 200"/>
    <path d="M80 250 Q180 260, 280 250 T480 250"/>
    <path d="M80 300 Q180 310, 280 300 T480 300"/>
    <path d="M80 350 Q180 340, 280 350 T480 350"/>
    
    <!-- Vertical lines with warping effect -->
    <path d="M150 80 Q140 180, 150 280 T150 480"/>
    <path d="M200 80 Q210 180, 200 280 T200 480"/>
    <path d="M250 80 Q240 180, 250 280 T250 480"/>
    <path d="M300 80 Q310 180, 300 280 T300 480"/>
    <path d="M350 80 Q340 180, 350 280 T350 480"/>
  </g>
  
  <!-- Central warp point -->
  <circle cx="256" cy="256" r="20" fill="url(#warp)" opacity="0.8"/>
  <circle cx="256" cy="256" r="12" fill="white" opacity="0.9"/>
  
  <!-- Brush cursor indicator -->
  <circle cx="256" cy="256" r="35" stroke="white" stroke-width="2" fill="none" opacity="0.7" stroke-dasharray="5,5"/>
</svg> 